<svg width="19" height="22" viewBox="0 0 19 22" fill="none" xmlns="http://www.w3.org/2000/svg">
<path d="M11.3335 1H3.3335C2.80306 1 2.29436 1.21071 1.91928 1.58579C1.54421 1.96086 1.3335 2.46957 1.3335 3V19C1.3335 19.5304 1.54421 20.0391 1.91928 20.4142C2.29436 20.7893 2.80306 21 3.3335 21H15.3335C15.8639 21 16.3726 20.7893 16.7477 20.4142C17.1228 20.0391 17.3335 19.5304 17.3335 19V7M11.3335 1L17.3335 7M11.3335 1V7H17.3335M13.3335 12H5.3335M13.3335 16H5.3335M7.3335 8H5.3335" stroke="currentColor" stroke-width="2" stroke-linecap="round" stroke-linejoin="round"/>
</svg>
