<svg width="204" height="28" viewBox="0 0 204 28" fill="none" xmlns="http://www.w3.org/2000/svg">
<g clip-path="url(#clip0_57_581)">
<path d="M44.3813 0.486362C42.2326 7.98743 40.1268 15.299 38.0249 22.6106H26.6718C27.9317 17.7818 29.1565 13.0819 30.4008 8.30779C30.0609 8.27067 29.1057 8.24528 28.7736 8.21012C27.1601 12.9862 25.5564 17.7251 23.9546 22.47H13.9199C15.0939 17.6353 16.2406 12.9276 17.4029 8.15542C17.0649 8.13979 16.0999 8.12807 15.7815 8.11245C14.2748 12.8853 12.7772 17.6314 11.2887 22.3508H0C2.17218 14.8875 4.31702 7.52056 6.43451 0.25H24.3453C24.105 1.55683 23.8862 2.73863 23.6459 4.04155L24.8649 4.10211C25.3474 2.84217 25.822 1.60761 26.2518 0.486362H44.3813Z" fill="#0090D4"/>
<path d="M55.0683 12.8805C54.3162 12.5719 54.0056 12.0191 53.865 11.3178C53.6696 10.2942 53.486 9.26476 53.3278 8.23532C53.2028 7.42661 52.7594 6.95779 51.9448 6.94998C49.5734 6.92849 47.2 6.94998 44.7328 6.94998C43.215 12.1851 41.6972 17.4261 40.1658 22.712H41.6269C41.7654 22.2725 41.9385 21.8447 42.1446 21.4325C43.0549 18.9361 45.8892 17.2092 49.1202 17.2092H50.3821C50.7198 17.2094 51.0526 17.2897 51.3532 17.4435C51.6538 17.5974 51.9136 17.8205 52.1112 18.0943C52.3088 18.3682 52.4385 18.6851 52.4897 19.0189C52.5409 19.3526 52.5122 19.6938 52.4058 20.0143L51.4603 22.8702H54.8222C55.4297 20.6961 56.1192 18.5434 56.6115 16.3458C56.9631 14.7714 56.2696 13.3747 55.0683 12.8805ZM46.5807 9.39759H49.5499C49.7388 9.39777 49.9252 9.44136 50.0946 9.52502C50.264 9.60867 50.4118 9.73013 50.5268 9.88003C50.6418 10.0299 50.7208 10.2043 50.7577 10.3895C50.7945 10.5748 50.7883 10.7661 50.7395 10.9486L50.3977 12.1968C49.9168 12.1387 49.4327 12.11 48.9483 12.1109C47.5106 12.1109 46.2702 12.3511 45.6919 12.6969L46.5807 9.39759Z" fill="#FA0100"/>
<path d="M4.96158 23.8979H12.5662C12.5853 24.4009 12.5019 24.9024 12.3211 25.3721C12.1404 25.8418 11.866 26.2698 11.5146 26.6301C11.1632 26.9904 10.7423 27.2755 10.2773 27.468C9.8123 27.6606 9.31301 27.7565 8.80979 27.7501C6.64151 27.752 4.86587 25.9998 4.96158 23.8979Z" fill="#0090D4"/>
<path d="M50.5678 23.6694C50.5834 25.9178 48.8253 27.7716 46.6883 27.7501C46.1657 27.7476 45.6489 27.641 45.1681 27.4363C44.6873 27.2317 44.2522 26.9331 43.8882 26.5582C43.5242 26.1833 43.2386 25.7395 43.0483 25.2529C42.8579 24.7662 42.7665 24.2465 42.7795 23.7241C42.7807 23.4833 42.8009 23.2429 42.8401 23.0053C43.1644 21.0636 44.729 19.6571 46.6707 19.6845C47.5967 19.7093 48.4857 20.0534 49.187 20.6586C49.8883 21.2638 50.3589 22.0929 50.5189 23.0053C50.5539 23.2249 50.5702 23.447 50.5678 23.6694Z" fill="#FA0100"/>
<path d="M66.7101 21.3511H63.4302V11.1016H74.1307C78.046 11.1016 78.6815 13.5615 78.6815 15.8983V21.3511H75.4016V15.8983C75.4016 14.6274 74.9712 13.7664 73.6387 13.7664H72.6958V21.3511H69.4159V15.8983C69.4159 14.6274 68.9855 13.7664 67.653 13.7664H66.7101V21.3511ZM80.1161 16.2058C80.1161 12.9465 82.248 10.7941 85.4663 10.7941C88.6847 10.7941 90.8166 12.9465 90.8166 16.2058C90.8166 19.4652 88.6847 21.6586 85.4663 21.6586C82.248 21.6586 80.1161 19.4652 80.1161 16.2058ZM83.4984 16.2263C83.4984 17.8252 84.2979 18.8912 85.4663 18.8912C86.6348 18.8912 87.4342 17.8252 87.4342 16.2263C87.4342 14.6274 86.6348 13.5615 85.4663 13.5615C84.2979 13.5615 83.4984 14.6274 83.4984 16.2263ZM95.1015 21.3511L91.0222 11.1016H94.343L96.7619 17.1693L99.1808 11.1016H102.502L98.4223 21.3511H95.1015ZM103.107 9.87163V6.59179H106.387V9.87163H103.107ZM103.107 18.4812V11.1016H106.387V21.3511H105.977C104.255 21.3511 103.107 20.2031 103.107 18.4812ZM111.302 21.3511H108.022V11.1016H113.208C117.124 11.1016 118.169 13.5615 118.169 15.8983V21.3511H114.889V15.8983C114.889 14.6274 114.049 13.7664 112.716 13.7664H111.302V21.3511ZM119.654 16.0623C119.654 13.0695 121.745 11.1016 124.614 11.1016H130.416V20.5106C130.416 23.77 128.53 25.9634 124.512 25.9634C122.749 25.9634 121.089 25.4099 119.613 23.7495L121.642 21.9455C122.606 22.8065 123.323 23.196 124.532 23.196C126.377 23.196 127.136 22.0685 127.136 20.4696V19.7931C126.541 20.6336 125.68 21.0436 124.553 21.0436C121.724 21.0436 119.654 19.0347 119.654 16.0623ZM123.036 16.0418C123.036 17.3743 123.877 18.2762 125.106 18.2762C126.357 18.2762 127.136 17.3743 127.136 16.0213V13.7664H125.106C123.877 13.7664 123.036 14.6889 123.036 16.0418ZM143.19 21.3511H137.799V5.97682H141.079V11.1016H143.6C146.47 11.1016 148.561 13.131 148.561 16.2263C148.561 19.2807 146.019 21.3511 143.19 21.3511ZM145.179 16.2468C145.179 14.7709 144.338 13.7664 143.108 13.7664H141.079V18.6862H143.108C144.338 18.6862 145.179 17.7023 145.179 16.2468ZM157.283 21.3511V20.3261C156.688 21.2076 155.827 21.6586 154.7 21.6586C151.871 21.6586 149.801 19.5267 149.801 16.3698C149.801 13.1925 151.892 11.1016 154.761 11.1016H160.563V21.3511H157.283ZM153.183 16.3493C153.183 17.8662 154.024 18.8912 155.253 18.8912C156.504 18.8912 157.283 17.8662 157.283 16.3288V13.7664H155.253C154.024 13.7664 153.183 14.8119 153.183 16.3493ZM162.212 13.7664V11.1016H170.514V13.7664L166.189 18.6862H170.514V21.3511H162.212V18.6862L166.538 13.7664H162.212ZM178.643 21.3511V20.3261C178.048 21.2076 177.187 21.6586 176.06 21.6586C173.231 21.6586 171.161 19.5267 171.161 16.3698C171.161 13.1925 173.251 11.1016 176.121 11.1016H181.922V21.3511H178.643ZM174.543 16.3493C174.543 17.8662 175.383 18.8912 176.613 18.8912C177.864 18.8912 178.643 17.8662 178.643 16.3288V13.7664H176.613C175.383 13.7664 174.543 14.8119 174.543 16.3493ZM191.054 21.3511V20.3261C190.46 21.2076 189.599 21.6586 188.471 21.6586C185.642 21.6586 183.572 19.5267 183.572 16.3698C183.572 13.1925 185.663 11.1016 188.533 11.1016H194.334V21.3511H191.054ZM186.954 16.3493C186.954 17.8662 187.795 18.8912 189.025 18.8912C190.275 18.8912 191.054 17.8662 191.054 16.3288V13.7664H189.025C187.795 13.7664 186.954 14.8119 186.954 16.3493ZM201.149 13.7664C200.001 13.7664 199.468 14.6274 199.468 15.8983V21.3511H196.189V15.8983C196.189 13.5615 197.234 11.1016 200.801 11.1016H203.179V13.7664H201.149Z" fill="#001721"/>
</g>
<defs>
<clipPath id="clip0_57_581">
<rect width="203.566" height="27.5" fill="white" transform="translate(0 0.25)"/>
</clipPath>
</defs>
</svg>
