<svg width="194" height="75" viewBox="0 0 194 75" fill="none" xmlns="http://www.w3.org/2000/svg">
<g clip-path="url(#clip0_28_368)">
<path d="M119.01 0.323209C116.071 10.5804 113.192 20.5786 110.318 30.5767H94.7931C96.516 23.9736 98.1908 17.5468 99.8923 11.0185C99.4275 10.9678 98.1213 10.933 97.6672 10.8849C95.4609 17.4159 93.2679 23.8961 91.0775 30.3844H77.3558C78.9612 23.7733 80.5291 17.3358 82.1185 10.8102C81.6564 10.7888 80.3368 10.7728 79.9014 10.7514C77.8411 17.2779 75.7932 23.7679 73.7578 30.2214H58.3212C61.2915 20.0158 64.2244 9.94203 67.1199 0H91.6117C91.2832 1.787 90.984 3.40305 90.6555 5.18471L92.3223 5.26751C92.982 3.54462 93.6311 1.85645 94.2188 0.323209H119.01Z" fill="#0090D4"/>
<path d="M133.623 17.2716C132.595 16.8496 132.17 16.0936 131.978 15.1347C131.711 13.735 131.46 12.3273 131.243 10.9196C131.073 9.81375 130.466 9.17267 129.352 9.16198C126.11 9.1326 122.864 9.16198 119.49 9.16198C117.415 16.3207 115.339 23.4874 113.245 30.7155H115.243C115.433 30.1145 115.669 29.5295 115.951 28.9659C117.196 25.5522 121.072 23.1909 125.49 23.1909H127.215C127.677 23.191 128.132 23.3009 128.543 23.5113C128.954 23.7217 129.31 24.0267 129.58 24.4012C129.85 24.7757 130.027 25.2089 130.097 25.6654C130.167 26.1218 130.128 26.5884 129.983 27.0267L128.69 30.9319H133.287C134.118 27.9589 135.061 25.0153 135.734 22.0102C136.214 19.8573 135.266 17.9474 133.623 17.2716ZM122.017 12.5089H126.077C126.336 12.5092 126.591 12.5688 126.822 12.6832C127.054 12.7976 127.256 12.9637 127.413 13.1686C127.571 13.3736 127.679 13.612 127.729 13.8654C127.779 14.1187 127.771 14.3803 127.704 14.6298L127.237 16.3367C126.579 16.2573 125.917 16.218 125.255 16.2192C123.289 16.2192 121.593 16.5477 120.802 17.0205L122.017 12.5089Z" fill="#FA0100"/>
<path d="M65.1058 32.3372H75.5046C75.5307 33.0249 75.4167 33.7107 75.1695 34.3529C74.9223 34.9952 74.5471 35.5805 74.0666 36.0732C73.5861 36.5659 73.0105 36.9557 72.3746 37.219C71.7388 37.4823 71.0561 37.6135 70.3679 37.6047C67.403 37.6073 64.9749 35.2113 65.1058 32.3372Z" fill="#0090D4"/>
<path d="M127.469 32.0244C127.491 35.0989 125.087 37.6338 122.164 37.6044C121.45 37.6011 120.743 37.4552 120.086 37.1754C119.428 36.8955 118.833 36.4873 118.335 35.9746C117.838 35.462 117.447 34.8551 117.187 34.1897C116.927 33.5242 116.802 32.8135 116.819 32.0992C116.821 31.7699 116.849 31.4412 116.902 31.1162C117.346 28.4611 119.485 26.5378 122.14 26.5752C123.407 26.6092 124.622 27.0798 125.581 27.9074C126.54 28.7349 127.184 29.8685 127.403 31.1162C127.45 31.4165 127.473 31.7203 127.469 32.0244Z" fill="#FA0100"/>
</g>
<path d="M6.18926 68.3486H1.70429V54.3331H16.3365C21.6904 54.3331 22.5594 57.6968 22.5594 60.8924V68.3486H18.0744V60.8924C18.0744 59.1544 17.4858 57.9771 15.6638 57.9771H14.3743V68.3486H9.88936V60.8924C9.88936 59.1544 9.30071 57.9771 7.47869 57.9771H6.18926V68.3486ZM24.5211 61.3128C24.5211 56.8559 27.4364 53.9126 31.8373 53.9126C36.2381 53.9126 39.1534 56.8559 39.1534 61.3128C39.1534 65.7698 36.2381 68.7691 31.8373 68.7691C27.4364 68.7691 24.5211 65.7698 24.5211 61.3128ZM29.1463 61.3409C29.1463 63.5273 30.2395 64.9849 31.8373 64.9849C33.435 64.9849 34.5282 63.5273 34.5282 61.3409C34.5282 59.1544 33.435 57.6968 31.8373 57.6968C30.2395 57.6968 29.1463 59.1544 29.1463 61.3409ZM45.0127 68.3486L39.4346 54.3331H43.9756L47.2833 62.6303L50.5909 54.3331H55.132L49.5538 68.3486H45.0127ZM55.9598 52.6512V48.1663H60.4447V52.6512H55.9598ZM55.9598 64.4243V54.3331H60.4447V68.3486H59.8841C57.5295 68.3486 55.9598 66.7789 55.9598 64.4243ZM67.1656 68.3486H62.6806V54.3331H69.7725C75.1264 54.3331 76.556 57.6968 76.556 60.8924V68.3486H72.071V60.8924C72.071 59.1544 70.9218 57.9771 69.0998 57.9771H67.1656V68.3486ZM78.5863 61.1166C78.5863 57.0241 81.4455 54.3331 85.3698 54.3331H93.3026V67.1994C93.3026 71.6563 90.7238 74.6556 85.2297 74.6556C82.819 74.6556 80.5485 73.8988 78.5302 71.6283L81.3053 69.1615C82.6228 70.3388 83.6039 70.8714 85.2577 70.8714C87.7805 70.8714 88.8176 69.3297 88.8176 67.1433V66.2183C88.0047 67.3675 86.8274 67.9282 85.2857 67.9282C81.4174 67.9282 78.5863 65.1811 78.5863 61.1166ZM83.2114 61.0886C83.2114 62.9106 84.3607 64.144 86.0426 64.144C87.7525 64.144 88.8176 62.9106 88.8176 61.0606V57.9771H86.0426C84.3607 57.9771 83.2114 59.2385 83.2114 61.0886ZM110.771 68.3486H103.399V47.3253H107.884V54.3331H111.332C115.256 54.3331 118.115 57.1082 118.115 61.3409C118.115 65.5175 114.64 68.3486 110.771 68.3486ZM113.49 61.3689C113.49 59.3507 112.341 57.9771 110.659 57.9771H107.884V64.7046H110.659C112.341 64.7046 113.49 63.3591 113.49 61.3689ZM130.042 68.3486V66.9471C129.229 68.1524 128.052 68.7691 126.51 68.7691C122.642 68.7691 119.81 65.8539 119.81 61.5371C119.81 57.1923 122.67 54.3331 126.594 54.3331H134.527V68.3486H130.042ZM124.436 61.509C124.436 63.5833 125.585 64.9849 127.267 64.9849C128.977 64.9849 130.042 63.5833 130.042 61.481V57.9771H127.267C125.585 57.9771 124.436 59.4067 124.436 61.509ZM136.782 57.9771V54.3331H148.135V57.9771L142.22 64.7046H148.135V68.3486H136.782V64.7046L142.697 57.9771H136.782ZM159.25 68.3486V66.9471C158.437 68.1524 157.26 68.7691 155.718 68.7691C151.85 68.7691 149.019 65.8539 149.019 61.5371C149.019 57.1923 151.878 54.3331 155.802 54.3331H163.735V68.3486H159.25ZM153.644 61.509C153.644 63.5833 154.793 64.9849 156.475 64.9849C158.185 64.9849 159.25 63.5833 159.25 61.481V57.9771H156.475C154.793 57.9771 153.644 59.4067 153.644 61.509ZM176.222 68.3486V66.9471C175.409 68.1524 174.232 68.7691 172.69 68.7691C168.822 68.7691 165.99 65.8539 165.99 61.5371C165.99 57.1923 168.85 54.3331 172.774 54.3331H180.707V68.3486H176.222ZM170.616 61.509C170.616 63.5833 171.765 64.9849 173.447 64.9849C175.157 64.9849 176.222 63.5833 176.222 61.481V57.9771H173.447C171.765 57.9771 170.616 59.4067 170.616 61.509ZM190.026 57.9771C188.457 57.9771 187.728 59.1544 187.728 60.8924V68.3486H183.243V60.8924C183.243 57.6968 184.672 54.3331 189.55 54.3331H192.801V57.9771H190.026Z" fill="#001721"/>
<defs>
<clipPath id="clip0_28_368">
<rect width="77.3578" height="37.6045" fill="white" transform="translate(58.3212)"/>
</clipPath>
</defs>
</svg>
